<svg width="32" height="32" fill="none" xmlns="http://www.w3.org/2000/svg"><g clip-path="url(#clip0)" fill="#9C9C9C"><path d="M20.734 11.372a.328.328 0 00-.232.096l-5.714 5.715-3.289-3.29a.338.338 0 00-.464 0L9.71 15.22a.328.328 0 000 .464l4.847 4.847a.327.327 0 00.464 0l7.272-7.273a.329.329 0 000-.464l-1.326-1.326a.328.328 0 00-.232-.096zm-5.946 8.462l-4.383-4.382.863-.863 3.288 3.29a.327.327 0 00.464 0l5.714-5.715.863.863-6.81 6.807z"/><path d="M16 7.062a8.938 8.938 0 108.937 8.937 8.948 8.948 0 00-8.938-8.937zm0 17.219a8.282 8.282 0 118.28-8.282A8.29 8.29 0 0116 24.281z"/><path d="M27.63 17.052a1.673 1.673 0 000-2.105l-.538-.671a1.028 1.028 0 01-.184-.93l.24-.823a1.694 1.694 0 00-.808-1.948l-.75-.412a1.028 1.028 0 01-.529-.788l-.093-.854a1.673 1.673 0 00-1.49-1.489l-.853-.094a1.027 1.027 0 01-.788-.527l-.412-.752a1.673 1.673 0 00-1.948-.807l-.824.24a1.03 1.03 0 01-.93-.185l-.671-.538a1.674 1.674 0 00-2.105 0l-.671.538a1.031 1.031 0 01-.93.184l-.823-.24a1.694 1.694 0 00-1.948.808l-.413.751a1.028 1.028 0 01-.787.528l-.854.094A1.673 1.673 0 007.03 8.52l-.093.854a1.027 1.027 0 01-.528.787l-.751.413a1.674 1.674 0 00-.807 1.948l.24.823a1.03 1.03 0 01-.185.93l-.538.671a1.673 1.673 0 000 2.105l.538.671a1.028 1.028 0 01.185.93l-.24.823a1.694 1.694 0 00.807 1.948l.75.413a1.028 1.028 0 01.529.788l.093.854a1.673 1.673 0 001.49 1.489l.853.093a1.027 1.027 0 01.788.528l.412.751a1.674 1.674 0 001.949.808l.822-.24a1.032 1.032 0 01.93.184l.672.538a1.673 1.673 0 002.105 0l.671-.538a1.03 1.03 0 01.93-.184l.823.24a1.673 1.673 0 001.948-.808l.413-.751a1.028 1.028 0 01.787-.528l.854-.093a1.673 1.673 0 001.49-1.49l.093-.854a1.028 1.028 0 01.527-.787l.752-.413a1.674 1.674 0 00.807-1.948l-.24-.823a1.03 1.03 0 01.185-.93l.538-.67zm-1.05.261a1.687 1.687 0 00-.302 1.524l.24.823a1.021 1.021 0 01-.493 1.189l-.751.412a1.684 1.684 0 00-.865 1.292l-.093.854a1.022 1.022 0 01-.91.91l-.853.093a1.685 1.685 0 00-1.292.864l-.413.752a1.022 1.022 0 01-1.188.493l-.823-.24a1.683 1.683 0 00-1.524.302l-.671.537a1.021 1.021 0 01-1.285 0l-.671-.537a1.686 1.686 0 00-1.524-.303l-.823.24a1.023 1.023 0 01-1.189-.492l-.412-.752a1.685 1.685 0 00-1.292-.864l-.854-.094a1.022 1.022 0 01-.909-.909l-.094-.854a1.685 1.685 0 00-.864-1.292l-.752-.412a1.034 1.034 0 01-.492-1.189l.24-.823a1.685 1.685 0 00-.302-1.524l-.538-.67a1.022 1.022 0 010-1.286l.538-.67a1.687 1.687 0 00.302-1.525l-.24-.823a1.022 1.022 0 01.493-1.188l.751-.413a1.684 1.684 0 00.865-1.292l.093-.854a1.022 1.022 0 01.91-.908l.855-.094a1.684 1.684 0 001.291-.864l.413-.752a1.034 1.034 0 011.187-.493l.823.24a1.685 1.685 0 001.524-.302l.671-.538a1.021 1.021 0 011.285 0l.671.538a1.688 1.688 0 001.524.302l.823-.24a1.023 1.023 0 011.189.493l.412.751a1.684 1.684 0 001.292.865l.854.094a1.022 1.022 0 01.909.908l.094.854a1.685 1.685 0 00.864 1.292l.752.413a1.034 1.034 0 01.492 1.188l-.24.823a1.686 1.686 0 00.302 1.524l.538.671a1.022 1.022 0 010 1.285l-.538.671z"/></g><defs><clipPath id="clip0"><path fill="#fff" d="M4 4h24v24H4z"/></clipPath></defs></svg>
