<svg width="32" height="32" fill="none" xmlns="http://www.w3.org/2000/svg"><g clip-path="url(#clip0)"><path d="M6.396 22.595a.469.469 0 100-.938.469.469 0 000 .938z" fill="#556695"/><path d="M27.531 10.797c.26 0 .469-.21.469-.469V7.516a.469.469 0 00-.469-.47h-3.75a.469.469 0 00-.937 0v6.045l-3.472 5.144-3.606-2.084v-1.135h2.812c.26 0 .469-.21.469-.47v-2.343a.469.469 0 00-.469-.469h-2.812a.469.469 0 00-.938 0v4.554L12.2 20.544l-3.044-2.03V17.36H11.5c.259 0 .469-.21.469-.468v-1.875a.469.469 0 00-.469-.47H9.156a.469.469 0 10-.937 0v4.075L7.198 20.12a.472.472 0 00.123.651.471.471 0 00.651-.124l.842-1.233 5.283 3.538a.475.475 0 00.651-.126.469.469 0 00-.127-.651l-1.642-1.108 2.477-4.01 6.249 3.607a.48.48 0 00.646-.149.469.469 0 00-.15-.646l-2.025-1.149 3.264-4.836 3.622 2.415v8.186H5.357s.238-.35.24-.351a.482.482 0 00-.124-.652.471.471 0 00-.651.123l-.74 1.085a.467.467 0 00.387.733h23.063a.472.472 0 00.469-.469v-8.906a.468.468 0 00-.209-.39l-4.01-2.674v-2.186h3.75zm-3.75-2.813h3.282V9.86H23.78V7.984zm-8.015 4.688h2.344v1.406h-2.344v-1.406zm-6.61 2.812h1.875v.938H9.156v-.938z" fill="#9C9C9C"/></g><defs><clipPath id="clip0"><path fill="#fff" d="M4 4h24v24H4z"/></clipPath></defs></svg>
