<svg width="60" height="32" fill="none" xmlns="http://www.w3.org/2000/svg"><path d="M26.769 0h8.423L18.434 31.371h-6.571L0 0h8.6l7.452 21.105L26.77 0zM54.01 15.394c1.573.487 2.811 1.283 3.714 2.386.903 1.104 1.355 2.459 1.355 4.064 0 1.835-.48 3.469-1.442 4.902-.961 1.433-2.367 2.558-4.217 3.375-1.85.817-4.07 1.226-6.663 1.226-2.272 0-4.399-.287-6.38-.86-1.98-.573-3.684-1.376-5.112-2.408l3.015-5.719c2.71 1.835 5.564 2.752 8.564 2.752 1.515 0 2.651-.287 3.408-.86.758-.573 1.136-1.405 1.136-2.494 0-1.118-.364-1.92-1.092-2.408-.728-.487-1.864-.731-3.408-.731h-4.72l.525-6.192h3.933c1.631 0 2.847-.265 3.648-.795.801-.53 1.202-1.355 1.202-2.473 0-1.95-1.267-2.924-3.801-2.924-1.282 0-2.608.236-3.977.71a15.565 15.565 0 00-3.932 2.042l-2.054-5.719c1.31-1.032 2.928-1.835 4.85-2.408C44.485.287 46.553 0 48.767 0c2.068 0 3.91.33 5.527.989 1.617.66 2.877 1.591 3.78 2.795s1.354 2.594 1.354 4.171c0 3.583-1.806 6.063-5.418 7.439z" fill="#FF5353"/></svg>
