<svg width="32" height="32" fill="none" xmlns="http://www.w3.org/2000/svg"><path d="M14.239 13.812c-.256.18-.475.408-.646.67a.282.282 0 00.395.386.283.283 0 00.077-.078c.132-.204.301-.38.5-.52a.281.281 0 00-.326-.458z" fill="#9C9C9C"/><path d="M9.145 25.872H7.083V12.988v-.013c0-2.225 1.717-4.034 3.826-4.034 2.027 0 3.69 1.672 3.816 3.778a2.481 2.481 0 00-2.188 2.46v.44a.281.281 0 00.281.281h1.252c.124.45.526.783.997.783.47 0 .872-.332.997-.783h1.149a.28.28 0 00.28-.28v-.44a2.481 2.481 0 00-2.203-2.463c-.128-2.415-2.044-4.34-4.381-4.34-2.411 0-4.374 2.05-4.388 4.572v12.923H4.75a.281.281 0 000 .563h4.395a.281.281 0 100-.563zm5.922-9.752a.465.465 0 01-.389-.22h.777a.465.465 0 01-.388.22zm1.864-.94v.158H13.1v-.158a1.916 1.916 0 013.832 0z" fill="#9C9C9C"/><path d="M26.203 21.527v-1.861a1.185 1.185 0 00-1.193-1.175h-5.147a1.181 1.181 0 00-.91.42 1.199 1.199 0 00-.913-.42h-5.176a1.186 1.186 0 00-1.193 1.175v1.866a1.36 1.36 0 00-1.24 1.343v3.279a.282.282 0 00.28.281h2.181a.282.282 0 00.282-.281v-.375l11.614.004v.37a.281.281 0 00.281.282h2.18a.282.282 0 00.282-.281v-3.279a1.36 1.36 0 00-1.328-1.348zm-6.785-2.29a.624.624 0 01.445-.183h5.147a.622.622 0 01.63.612v1.96a1.352 1.352 0 00-.852 1.25v.11l-5.554-.002v-3.29a.638.638 0 01.184-.458zm-6.554-.183h5.175a.622.622 0 01.631.612l.001 3.318-5.497-.002v-.107a1.354 1.354 0 00-.94-1.28v-1.93a.622.622 0 01.63-.611zm-.253 6.818h-1.618v-2.997a.809.809 0 011.618 0v2.997zm.563-.656v-1.671l5.778.001 5.836.002v1.672l-11.614-.004zm13.794.656H25.35v-2.997a.81.81 0 011.618 0v2.997z" fill="#9C9C9C"/></svg>
